{"title":"Mom (2017) 800Mb Rip - CAMRIP - x264 - AAC - DUS 9th Anni","magnet":"magnet:?xt=urn:btih:a5b14a506b48631ff421cb4d216082a2697ae3d0&dn=Mom+%282017%29+800Mb+Rip+-+CAMRIP+-+x264+-+AAC+-+DUS+9th+Anni&tr=udp%3A%2F%2Ftracker.leechers-paradise.org%3A6969&tr=udp%3A%2F%2Fzer0day.ch%3A1337&tr=udp%3A%2F%2Fopen.demonii.com%3A1337&tr=udp%3A%2F%2Ftracker.coppersurfer.tk%3A6969&tr=udp%3A%2F%2Fexodus.desync.com%3A6969","uploader":"makintos13","categoryP":"video","categoryS":"movies","size":"851993426","seeders":"42","leechers":"199","description":"screens:\r\n <a href=\"\nhttps://imgmak.com/zEI\" rel=\"nofollow\" target=\"_NEW\">\nhttps://imgmak.com/zEI</a>\r\n <a href=\"\nhttps://imgmak.com/zEq\" rel=\"nofollow\" target=\"_NEW\">\nhttps://imgmak.com/zEq</a>\r\n <a href=\"\nhttps://imgmak.com/zEt\" rel=\"nofollow\" target=\"_NEW\">\nhttps://imgmak.com/zEt</a>\r\n <a href=\"\nhttps://imgmak.com/zE2\" rel=\"nofollow\" target=\"_NEW\">\nhttps://imgmak.com/zE2</a>\r\n <a href=\"\nhttps://imgmak.com/zEF\" rel=\"nofollow\" target=\"_NEW\">\nhttps://imgmak.com/zEF</a>\r\n <a href=\"\nhttps://imgmak.com/zEi\" rel=\"nofollow\" target=\"_NEW\">\nhttps://imgmak.com/zEi</a>\r\n\r\n\r\nFormat                      : Matroska\r\nFormat version              : Version 2\r\nFile size                   : 806 MiB\r\nDuration                    : 2 h 17 min\r\n\r\n\r\nVideo\r\nID                          : 1\r\nFormat                      : AVC\r\nFormat/Info                 : Advanced Video Codec\r\nFormat profile              : <a class=\"__cf_email__\" href=\"/cdn-cgi/l/email-protection\" data-cfemail=\"cf87a6a8a78f83fde1fe\">[email&#xA0;protected]</a><script data-cfhash=\"f9e31\" type=\"text/javascript\">/* <![CDATA[ */!function(t,e,r,n,c,a,p){try{t=document.currentScript||function(){for(t=document.getElementsByTagName('script'),e=t.length;e--;)if(t[e].getAttribute('data-cfhash'))return t[e]}();if(t&&(c=t.previousSibling)){p=t.parentNode;if(a=c.getAttribute('data-cfemail')){for(e='',r='0x'+a.substr(0,2)|0,n=2;a.length-n;n+=2)e+='%'+('0'+('0x'+a.substr(n,2)^r).toString(16)).slice(-2);p.replaceChild(document.createTextNode(decodeURIComponent(e)),c)}p.removeChild(t)}}catch(u){}}()/* ]]> */</script>\r\nFormat settings, CABAC      : Yes\r\nFormat settings, ReFrames   : 4 frames\r\nCodec ID                    : V_MPEG4/ISO/AVC\r\nDuration                    : 2 h 17 min\r\nBit rate                    : 750 kb/s\r\nWidth                       : 640 pixels\r\nHeight                      : 272 pixels\r\nDisplay aspect ratio        : 2.35:1\r\nFrame rate mode             : Constant\r\nFrame rate                  : 25.000 FPS\r\nColor space                 : YUV\r\nChroma subsampling          : 4:2:0\r\nBit depth                   : 8 bits\r\nScan type                   : Progressive\r\nBits/(Pixel*Frame)          : 0.172\r\nStream size                 : 741 MiB (92%)\r\n aq=1:1.00\r\nDefault                     : Yes\r\nForced                      : No\r\n\r\nAudio\r\nID                          : 2\r\nFormat                      : AAC\r\nFormat/Info                 : Advanced Audio Codec\r\nFormat profile              : HE-AAC / LC\r\nCodec ID                    : A_AAC\r\nDuration                    : 2 h 17 min\r\nBit rate                    : 64.0 kb/s\r\nChannel(s)                  : 2 channels\r\nChannel positions           : Front: L R\r\nSampling rate               : 44.1 kHz / 22.05 kHz\r\nFrame rate                  : 21.533 FPS (1024 spf)\r\nCompression mode            : Lossy\r\nDelay relative to video     : 33 ms\r\nStream size                 : 63.0 MiB (8%)\r\nDefault                     : Yes\r\nForced                      : No","last_updated":"2017-07-08T12:01:56.546Z","parsed":{"xt":"urn:btih:a5b14a506b48631ff421cb4d216082a2697ae3d0","dn":"Mom (2017) 800Mb Rip - CAMRIP - x264 - AAC - DUS 9th Anni","tr":["udp://exodus.desync.com:6969","udp://open.demonii.com:1337","udp://tracker.coppersurfer.tk:6969","udp://tracker.leechers-paradise.org:6969","udp://zer0day.ch:1337"],"infoHash":"a5b14a506b48631ff421cb4d216082a2697ae3d0","infoHashBuffer":{"type":"Buffer","data":[165,177,74,80,107,72,99,31,244,33,203,77,33,96,130,162,105,122,227,208]},"name":"Mom (2017) 800Mb Rip - CAMRIP - x264 - AAC - DUS 9th Anni","announce":["udp://exodus.desync.com:6969","udp://open.demonii.com:1337","udp://tracker.coppersurfer.tk:6969","udp://tracker.leechers-paradise.org:6969","udp://zer0day.ch:1337"],"urlList":[]}}